<svg xmlns="http://www.w3.org/2000/svg" width="256" height="256"><path fill-opacity=".016" d="M0 128.004v128.004l128.25-.254 128.25-.254.254-127.75L257.008 0H0v128.004m.485.496c0 70.4.119 99.053.265 63.672.146-35.38.146-92.98 0-128C.604 29.153.485 58.1.485 128.5" fill="#1976D2" fill-rule="evenodd"/><path fill-opacity=".187" d="M56.584 56.865c-.776 1.254.031 1.712 4.416 2.507 5.357.97 9.947 4.264 11.707 8.4 2.51 5.899 3.771 50.036 2.509 87.836-.567 16.99-1.543 32.577-2.169 34.637-1.412 4.646-6.415 8.246-13.736 9.885-3.339.747-5.311 1.711-5.311 2.597 0 1.197 7.316 1.355 48.75 1.048 47.655-.353 48.905-.413 55.645-2.653l6.894-2.292 2.106 2.482c2.084 2.457 2.314 2.487 22.688 3.034 17.561.471 20.584.339 20.584-.897 0-.797-.583-1.449-1.296-1.449-.713 0-3.9-.963-7.083-2.141-4.529-1.675-7.353-3.743-12.981-9.503l-7.192-7.362 2.026-4.58c2.849-6.439 3.537-17.592 1.509-24.464-3.199-10.844-13.568-20.567-26.7-25.038l-6.6-2.247 5.613-2.804c7.149-3.573 14.357-10.771 17.77-17.748 2.244-4.585 2.66-6.742 2.617-13.551-.103-16.248-8.676-26.819-26.984-33.27L143.5 56.52l-43.15-.326c-27.958-.211-43.367.025-43.766.671m48.916 3.042l-5 .593-.651 5.5c-.358 3.025-.696 17.909-.75 33.077L99 126.653l10.25-.381c17.57-.653 26.92-3.701 35.434-11.548 7.22-6.655 8.81-10.576 8.812-21.724.002-7.596-.426-10.426-2.134-14.122-5.183-11.213-14.482-17.069-29.913-18.836-4.922-.564-9.399-.959-9.949-.877-.55.082-3.25.416-6 .742m-6.329 99.697c.307 27.914.464 30.128 2.363 33.396 3.518 6.054 7.136 7.206 20.966 6.675 13.396-.515 18.274-1.858 26-7.162 8.634-5.928 8.642-6.093.91-18.355-12.707-20.149-26.04-36.097-34.16-40.856-2.707-1.587-6.456-2.692-10.329-3.043l-6.08-.551.33 29.896" fill="#1976D2" fill-rule="evenodd"/><path fill-opacity=".618" d="M57.24 57.221c.224.671 2.134 1.579 4.244 2.017 5.144 1.069 9.91 4.137 11.357 7.312 2.716 5.962 3.41 22.99 2.85 69.95-.568 47.626-1.068 54.047-4.499 57.842-2.21 2.444-8.245 5.493-12.711 6.42-1.953.406-3.533 1.188-3.512 1.738.024.653 16.28.984 46.784.954 41.751-.041 47.439-.237 53.224-1.836 10.817-2.99 10.678-2.764 5.961-9.71l-4.082-6.011-3.678 3.319c-8.875 8.008-17.309 10.885-32.464 11.075-8.078.102-11.007-.257-14.008-1.716-5.898-2.868-6.944-5.952-7.821-23.075-1.507-29.397-.524-113.195 1.35-115.069.355-.354 4.425-.881 9.043-1.169 9.55-.596 19.939.915 26.909 3.914 5.438 2.339 13.215 10.148 15.462 15.525 3.528 8.445 3.407 21.423-.266 28.525-.842 1.628-1.293 3.197-1.004 3.487 1.335 1.334 18.974 4.239 20.095 3.309.654-.543 2.503-3.358 4.108-6.255 2.678-4.835 2.918-6.088 2.918-15.267 0-9.319-.21-10.375-3.087-15.5-5.958-10.616-18.699-17.8-35.413-19.966-11.605-1.504-82.27-1.343-81.76.187m90.004 71.272l-3.256 1.416 4.917 4.599c2.942 2.752 10.419 13.017 18.607 25.546C175.04 171.574 181.551 181 181.979 181c2.365 0 5.354-13.924 4.508-21-.909-7.606-3.519-13.051-9.132-19.051-5.665-6.057-11.21-9.491-19.48-12.065-7.1-2.21-6.496-2.188-10.631-.391" fill="#1976D2" fill-rule="evenodd"/><path fill-opacity=".974" d="M60 58.206c10.615 3.038 13.258 5.714 14.887 15.069 1.408 8.082 1.511 101.717.122 110.225-1.807 11.068-3.823 13.39-15.185 17.495l-5.324 1.924 49-.256c43.33-.226 49.602-.456 54.207-1.985 2.864-.952 5.416-2.067 5.671-2.48.255-.412-1.135-3.362-3.087-6.555l-3.551-5.805-4.12 3.979c-7.944 7.672-18.602 11.159-34.158 11.175-9.214.01-15.103-2.774-17.962-8.492-1.905-3.81-2.016-6.374-2.341-54-.39-57.21.233-75.749 2.627-78.143 1.326-1.326 3.664-1.506 14.646-1.126 20.434.706 29.244 5.272 35.776 18.54 2.946 5.984 3.291 7.582 3.282 15.208-.007 6.583-.498 9.582-2.155 13.183l-2.145 4.662 9.345 1.76c10.861 2.046 11.111 1.947 15.252-6.021 3.626-6.975 3.767-19.478.309-27.277-2.84-6.406-10.271-13.561-17.543-16.89-10.757-4.925-15.799-5.368-60.053-5.277-29.174.061-39.99.374-37.5 1.087m87.369 70.728c-2.022.867-1.87 1.184 3 6.25 2.822 2.935 10.973 14.406 18.113 25.492 7.14 11.085 13.293 19.963 13.674 19.728 2.157-1.333 4.058-11.103 3.655-18.783-.513-9.777-3.727-16.616-10.685-22.741-8.5-7.482-22.119-12.362-27.757-9.946" fill="#1976D2" fill-rule="evenodd"/></svg>